<svg xmlns="http://www.w3.org/2000/svg" viewBox="0 0 270.1 270.1">
	<path class="skyblue" color-rendering="auto" image-rendering="auto" shape-rendering="auto" color-interpolation="sRGB" d="M33.9 70.1c-19.5 1.6-35.6 18.7-33.7 38.8 1.6 17.3 16.8 31.4 34.7 29.5 15-1.6 27.3-15 25.3-30.6 -1.6-12.7-13.2-23.1-26.6-21 -10.4 1.7-19 11.5-16.6 22.6 0.9 4 3.2 7.6 6.5 9.9 3.3 2.4 7.9 3.6 12.4 2.1 2.9-0.9 5.3-2.8 6.9-5.5 1.6-2.7 2.1-6.9 0-10.3 -1.7-2.7-3.3-3.2-5.8-3.6 -1.2-0.2-3-0.3-4.8 0.9 -1.8 1.2-2.8 3.7-2.8 5.4 0 1.3 0.5 2.6 1.4 3.6 -0.5-0.1-1-0.3-1.5-0.7 -1.2-0.9-2.2-2.4-2.6-3.9 -1.1-5 3.2-9.9 8.4-10.7 7.3-1.2 14.1 5 15.1 12.4 1.2 9.7-6.7 18.4-16.4 19.4 -12 1.3-22.6-8.6-23.7-20.5C8.8 93.7 20.5 81.2 34.7 80.1c0.1 0 0.3 0 0.4 0h200c0.1 0 0.3 0 0.4 0 14.2 1.1 25.9 13.6 24.6 27.9 -1.1 11.9-11.7 21.8-23.7 20.5 -9.7-1-17.6-9.7-16.4-19.4 0.9-7.4 7.7-13.5 15.1-12.4 5.2 0.8 9.5 5.7 8.4 10.7 -0.3 1.5-1.3 3-2.6 3.9 -0.5 0.4-1 0.6-1.5 0.7 0.9-1 1.5-2.2 1.4-3.6 0-1.7-1-4.2-2.8-5.4 -1.8-1.2-3.6-1.1-4.8-0.9 -2.5 0.4-4 1-5.8 3.6 -2.1 3.3-1.6 7.6 0 10.3 1.6 2.7 3.9 4.6 6.9 5.5 4.5 1.4 9.1 0.3 12.4-2.1s5.6-5.9 6.5-9.9c2.4-11.2-6.2-21-16.6-22.6 -13.4-2.1-25 8.3-26.6 21 -2 15.6 10.3 29 25.3 30.6 17.9 1.9 33.1-12.3 34.7-29.5 1.8-20.1-14.2-37.2-33.7-38.8 -0.4-0.1-0.8 0-1.2 0h-200c-0.4 0-0.8 0-1.2 0L33.9 70.1zM15.1 20.1c-2.8 0-5 2.2-5 5v10c0 1.3 0.5 2.6 1.5 3.5l20 20c0.9 0.9 2.2 1.5 3.5 1.5h200c1.3 0 2.6-0.5 3.5-1.5l20-20c0.9-0.9 1.5-2.2 1.5-3.5v-10c0-2.8-2.2-5-5-5C255.1 20.1 15.1 20.1 15.1 20.1zM20.1 30.1h230v2.9l-17.1 17.1H37.1l-17.1-17.1V30.1zM75.1 100.1c-2.8 0-5 2.2-5 5v140c0 2.8 2.2 5 5 5 1 0 2-0.3 2.8-0.8l28.4-19c1.4-0.9 2.2-2.4 2.2-4.1l1.6-91c0 0 0-0.1 0-0.1 0-3.3 10.1-3.4 10-0.1 0 0 0 0.1 0 0.1v80c0 2.8 2.2 5 5 5 1 0 2-0.3 2.8-0.8l30-20c1.4-0.9 2.2-2.5 2.2-4.2v-60c0-3.3 10-3.3 10 0v50c0 2.8 2.2 5 5 5 0.8 0 1.5-0.2 2.2-0.5l20-10c1.7-0.8 2.8-2.6 2.8-4.5v-70c0-2.8-2.2-5-5-5h-120H75.1zM80.1 110.1h110v61.9l-10 5v-41.9c0-16.7-30-16.7-30 0v57.3l-20 13.3v-70.7 0.1c0.3-16.7-30-16.8-30-0.1v-0.1l-1.5 88.4 -18.5 12.3V110.1L80.1 110.1z"/>
</svg>