<svg xmlns="http://www.w3.org/2000/svg" width="640" height="480" viewBox="0 0 640 480"><path d="M140.225 124.543c-34.716 2.764-63.22 33.174-59.972 68.895 2.788 30.662 29.894 55.82 61.618 52.454 26.602-2.82 48.425-26.644 44.894-54.382-2.87-22.534-23.454-41.055-47.228-37.272-18.458 2.938-33.72 20.387-29.508 40.236 1.526 7.19 5.656 13.432 11.536 17.665s14.077 6.307 22.062 3.764c5.23-1.665 9.407-5.007 12.238-9.81 2.83-4.806 3.75-12.292-.036-18.236-3.05-4.794-5.852-5.743-10.246-6.482-2.196-.37-5.27-.506-8.538 1.62s-5.002 6.526-5.002 9.636c-.03 2.374.89 4.66 2.556 6.35-.873-.25-1.738-.6-2.655-1.262-2.142-1.542-3.986-4.34-4.537-6.934-1.882-8.87 5.74-17.533 14.917-18.996 13.057-2.08 25.133 8.797 26.81 21.96 2.19 17.186-11.98 32.647-29.14 34.467-21.28 2.258-40.12-15.23-42.043-36.392-2.307-25.352 18.51-47.564 43.685-49.566.224-.02.45-.03.673-.042h355.39c.225.018.448.025.67.04 25.177 2.003 45.992 24.215 43.686 49.57-1.925 21.167-20.764 38.65-42.043 36.393-17.16-1.82-31.33-17.282-29.14-34.465 1.675-13.166 13.75-24.04 26.81-21.96 9.178 1.46 16.8 10.123 14.916 18.995-.55 2.593-2.396 5.393-4.537 6.934-.918.66-1.777 1.013-2.648 1.264 1.663-1.692 2.58-3.98 2.548-6.35 0-3.11-1.73-7.508-4.996-9.635-3.27-2.127-6.34-1.99-8.54-1.62-4.393.738-7.195 1.69-10.248 6.48-3.783 5.943-2.862 13.43-.032 18.236 2.83 4.804 7.007 8.146 12.238 9.81 7.985 2.54 16.18.467 22.06-3.766 5.88-4.232 10.01-10.473 11.535-17.665 4.212-19.848-11.05-37.297-29.506-40.236-23.773-3.783-44.36 14.738-47.228 37.27-3.532 27.74 18.296 51.56 44.896 54.382 31.723 3.366 58.826-21.792 61.614-52.455 3.25-35.72-25.256-66.132-59.972-68.894-.722-.11-1.388-.065-2.08-.08H142.31c-.692-.042-1.423.038-2.084.084v-.007zm-33.46-88.892c-4.905 0-8.884 3.98-8.884 8.886v17.77c0 2.356.938 4.617 2.605 6.282l35.54 35.54c1.666 1.666 3.924 2.603 6.28 2.603h355.39c2.357 0 4.617-.936 6.282-2.603l35.54-35.54c1.666-1.666 2.603-3.924 2.603-6.28v-17.77c0-4.907-3.98-8.886-8.885-8.886h-426.47zm8.886 17.77h408.7v5.203L494.016 88.96h-348.03L115.65 58.624V53.42zm106.62 142.157h195.464v110.008l-17.77 8.885V240c0-29.617-53.31-29.617-53.31 0v101.863l-35.538 23.693V240v.157c.528-29.718-53.305-29.88-53.305-.156v-.152l-2.686 157.115-32.852 21.902V195.577h-.003z"/><path d="M435.5 186.69v124.39c0 3.36-1.9 6.44-4.91 7.94l-35.54 17.77c-1.23.62-2.59.94-3.97.94-4.9 0-8.88-3.97-8.89-8.88V240c0-5.93-17.77-5.93-17.77 0v106.62c0 2.97-1.48 5.74-3.95 7.39l-53.31 35.54c-1.46.97-3.17 1.49-4.93 1.49-4.9 0-8.88-3.97-8.89-8.88V240v-.16c.11-5.83-17.76-5.67-17.76.16v.15l-2.77 161.77c-.05 2.92-1.53 5.62-3.96 7.24l-50.54 33.7c-1.46.97-3.17 1.49-4.92 1.49-4.91 0-8.89-3.98-8.89-8.88V186.69c0-4.9 3.98-8.88 8.88-8.88H426.62c4.91 0 8.88 3.97 8.88 8.88z"/></svg>